<mxfile host="app.diagrams.net" modified="2023-08-24T10:00:57.654Z" agent="Mozilla/5.0 (Macintosh; Intel Mac OS X 10_15_7) AppleWebKit/537.36 (KHTML, like Gecko) Chrome/116.0.0.0 Safari/537.36" etag="WBJH-y1zOPLU4W9tDqNA" version="21.6.8" type="device">
  <diagram name="Page-1" id="BstkCdcP1-1aaSHww0IR">
    <mxGraphModel dx="1306" dy="830" grid="1" gridSize="10" guides="1" tooltips="1" connect="1" arrows="1" fold="1" page="1" pageScale="1" pageWidth="850" pageHeight="1100" math="0" shadow="0">
      <root>
        <mxCell id="0" />
        <mxCell id="1" parent="0" />
        <mxCell id="p8amhBj57HxGas6HryD6-1" value="" style="rounded=1;whiteSpace=wrap;html=1;fillColor=none;strokeColor=#0C6DD7;strokeWidth=6;" vertex="1" parent="1">
          <mxGeometry x="280" y="240" width="360" height="240" as="geometry" />
        </mxCell>
        <mxCell id="p8amhBj57HxGas6HryD6-7" style="edgeStyle=orthogonalEdgeStyle;rounded=0;orthogonalLoop=1;jettySize=auto;html=1;exitX=1;exitY=0.5;exitDx=0;exitDy=0;startArrow=classic;startFill=1;strokeWidth=3;" edge="1" parent="1" source="p8amhBj57HxGas6HryD6-3" target="p8amhBj57HxGas6HryD6-6">
          <mxGeometry relative="1" as="geometry" />
        </mxCell>
        <mxCell id="p8amhBj57HxGas6HryD6-3" value="&lt;font size=&quot;1&quot; face=&quot;Ubuntu&quot; color=&quot;#ffffff&quot;&gt;&lt;b style=&quot;font-size: 20px;&quot;&gt;Astraios&lt;/b&gt;&lt;/font&gt;" style="rounded=1;whiteSpace=wrap;html=1;strokeWidth=3;strokeColor=none;fillColor=#F7941E;" vertex="1" parent="1">
          <mxGeometry x="320" y="330" width="120" height="60" as="geometry" />
        </mxCell>
        <mxCell id="p8amhBj57HxGas6HryD6-4" value="&lt;font style=&quot;font-size: 20px;&quot; color=&quot;#0c6dd7&quot; face=&quot;Ubuntu&quot;&gt;&lt;b&gt;Docker Compose&lt;/b&gt;&lt;/font&gt;" style="text;html=1;strokeColor=none;fillColor=none;align=center;verticalAlign=middle;whiteSpace=wrap;rounded=0;" vertex="1" parent="1">
          <mxGeometry x="355" y="260" width="210" height="30" as="geometry" />
        </mxCell>
        <mxCell id="p8amhBj57HxGas6HryD6-6" value="" style="sketch=0;outlineConnect=0;fontColor=#232F3E;gradientColor=none;fillColor=#2E27AD;strokeColor=none;dashed=0;verticalLabelPosition=bottom;verticalAlign=top;align=center;html=1;fontSize=12;fontStyle=0;aspect=fixed;pointerEvents=1;shape=mxgraph.aws4.rds_mysql_instance;" vertex="1" parent="1">
          <mxGeometry x="520" y="321" width="78" height="78" as="geometry" />
        </mxCell>
      </root>
    </mxGraphModel>
  </diagram>
</mxfile>
